<svg width="47" height="49" viewBox="0 0 47 49" fill="none" xmlns="http://www.w3.org/2000/svg">
<path d="M44.6127 20.5368H18.0627L43.7139 13.2032C43.9473 13.1338 44.1653 13.0153 44.3553 12.8547C44.5452 12.6941 44.7033 12.4947 44.8201 12.2681C44.9453 12.0491 45.0263 11.8048 45.058 11.5505C45.0898 11.2963 45.0715 11.0378 45.0045 10.7915L43.0916 3.18721C42.9713 2.68716 42.7589 2.21772 42.4668 1.80625C42.1748 1.39479 41.8089 1.04956 41.3905 0.790699C40.9722 0.531838 40.5098 0.364532 40.0302 0.298542C39.5507 0.232553 39.0636 0.269202 38.5975 0.406352L2.967 10.5946C2.49781 10.7259 2.0577 10.9553 1.67218 11.2696C1.28666 11.5839 0.963401 11.9767 0.721149 12.4254C0.478896 12.8741 0.322469 13.3696 0.260938 13.8834C0.199408 14.3971 0.233997 14.9187 0.362702 15.4181L2.20645 22.7763V44.1618C2.20645 45.2061 2.59496 46.2076 3.2865 46.9461C3.97804 47.6845 4.91597 48.0993 5.89395 48.0993H42.769C43.7469 48.0993 44.6849 47.6845 45.3764 46.9461C46.068 46.2076 46.4565 45.2061 46.4565 44.1618V22.5056C46.4565 21.9834 46.2622 21.4827 45.9164 21.1135C45.5707 20.7442 45.1017 20.5368 44.6127 20.5368ZM33.8498 11.9481L17.8092 16.5255L11.0565 12.3419L27.074 7.76455L33.8498 11.9481ZM42.769 44.1618H5.89395V24.4743H42.769V44.1618Z" fill="url(#paint0_linear_103_30)"/>
<defs>
<linearGradient id="paint0_linear_103_30" x1="4.9589" y1="8.9635" x2="24.4082" y2="48.9748" gradientUnits="userSpaceOnUse">
<stop stop-color="#DBB12C"/>
<stop offset="0.512473" stop-color="#E3C35E" stop-opacity="0.72"/>
<stop offset="1" stop-color="#F1E1AE"/>
</linearGradient>
</defs>
</svg>
