<svg width="18" height="19" viewBox="0 0 18 19" fill="none" xmlns="http://www.w3.org/2000/svg">
<path fill-rule="evenodd" clip-rule="evenodd" d="M3.30005 16.6452C3.30005 16.3415 3.54629 16.0952 3.85005 16.0952H13.75C14.0538 16.0952 14.3 16.3415 14.3 16.6452C14.3 16.949 14.0538 17.1952 13.75 17.1952H3.85005C3.54629 17.1952 3.30005 16.949 3.30005 16.6452Z" fill="url(#paint0_linear_6_852)"/>
<path fill-rule="evenodd" clip-rule="evenodd" d="M8.80005 6.19522C7.88878 6.19522 7.15005 6.93395 7.15005 7.84522C7.15005 8.75649 7.88878 9.49522 8.80005 9.49522C9.71132 9.49522 10.45 8.75649 10.45 7.84522C10.45 6.93395 9.71132 6.19522 8.80005 6.19522ZM6.05005 7.84522C6.05005 6.32644 7.28127 5.09522 8.80005 5.09522C10.3188 5.09522 11.55 6.32644 11.55 7.84522C11.55 9.36401 10.3188 10.5952 8.80005 10.5952C7.28127 10.5952 6.05005 9.36401 6.05005 7.84522Z" fill="url(#paint1_linear_6_852)"/>
<path fill-rule="evenodd" clip-rule="evenodd" d="M8.8 2.89522C7.48718 2.89522 6.22813 3.41674 5.29982 4.34504C4.37152 5.27335 3.85 6.5324 3.85 7.84522C3.85 10.1222 5.12152 12.1955 6.46503 13.7406C7.13007 14.5054 7.79653 15.122 8.29683 15.5472C8.49469 15.7154 8.66593 15.8531 8.8 15.9577C8.93407 15.8531 9.10531 15.7154 9.30317 15.5472C9.80348 15.122 10.4699 14.5054 11.135 13.7406C12.4785 12.1955 13.75 10.1222 13.75 7.84522C13.75 6.5324 13.2285 5.27335 12.3002 4.34504C11.3719 3.41674 10.1128 2.89522 8.8 2.89522ZM8.8 16.6452C8.4846 17.0958 8.48444 17.0957 8.48427 17.0956L8.48381 17.0952L8.48252 17.0943L8.47846 17.0915L8.46447 17.0815C8.45259 17.073 8.43563 17.0608 8.41395 17.045C8.37058 17.0133 8.30826 16.9672 8.22969 16.9071C8.07261 16.7871 7.85027 16.6114 7.58442 16.3854C7.05348 15.9341 6.34493 15.2788 5.63497 14.4624C4.22848 12.8449 2.75 10.5182 2.75 7.84522C2.75 6.24066 3.38741 4.70182 4.522 3.56722C5.6566 2.43263 7.19544 1.79522 8.8 1.79522C10.4046 1.79522 11.9434 2.43263 13.078 3.56722C14.2126 4.70182 14.85 6.24066 14.85 7.84522C14.85 10.5182 13.3715 12.8449 11.965 14.4624C11.2551 15.2788 10.5465 15.9341 10.0156 16.3854C9.74973 16.6114 9.52739 16.7871 9.37031 16.9071C9.29174 16.9672 9.22942 17.0133 9.18605 17.045C9.16437 17.0608 9.14741 17.073 9.13553 17.0815L9.12154 17.0915L9.11748 17.0943L9.11619 17.0952L9.11573 17.0956C9.11556 17.0957 9.1154 17.0958 8.8 16.6452ZM8.8 16.6452L9.1154 17.0958C8.92603 17.2284 8.67397 17.2284 8.4846 17.0958L8.8 16.6452Z" fill="url(#paint2_linear_6_852)"/>
<defs>
<linearGradient id="paint0_linear_6_852" x1="4.42505" y1="16.2952" x2="4.47837" y2="17.4303" gradientUnits="userSpaceOnUse">
<stop stop-color="#DBB12C"/>
<stop offset="0.512473" stop-color="#E3C35E" stop-opacity="0.72"/>
<stop offset="1" stop-color="#F1E1AE"/>
</linearGradient>
<linearGradient id="paint1_linear_6_852" x1="6.61255" y1="6.09522" x2="8.8014" y2="10.7547" gradientUnits="userSpaceOnUse">
<stop stop-color="#DBB12C"/>
<stop offset="0.512473" stop-color="#E3C35E" stop-opacity="0.72"/>
<stop offset="1" stop-color="#F1E1AE"/>
</linearGradient>
<linearGradient id="paint2_linear_6_852" x1="3.9875" y1="4.59522" x2="11.0018" y2="16.3273" gradientUnits="userSpaceOnUse">
<stop stop-color="#DBB12C"/>
<stop offset="0.512473" stop-color="#E3C35E" stop-opacity="0.72"/>
<stop offset="1" stop-color="#F1E1AE"/>
</linearGradient>
</defs>
</svg>
