<svg width="45" height="45" viewBox="0 0 45 45" fill="none" xmlns="http://www.w3.org/2000/svg">
<g filter="url(#filter0_b_6_867)">
<circle cx="22.8406" cy="22.4969" r="22" fill="white" fill-opacity="0.15"/>
<circle cx="22.8406" cy="22.4969" r="21" stroke="url(#paint0_linear_6_867)" stroke-width="2"/>
</g>
<g clip-path="url(#clip0_6_867)">
<path fill-rule="evenodd" clip-rule="evenodd" d="M17.8406 31.4969C17.8406 30.3924 18.736 29.4969 19.8406 29.4969C20.9451 29.4969 21.8406 30.3924 21.8406 31.4969C21.8406 32.6015 20.9451 33.4969 19.8406 33.4969C18.736 33.4969 17.8406 32.6015 17.8406 31.4969Z" fill="url(#paint1_linear_6_867)"/>
<path fill-rule="evenodd" clip-rule="evenodd" d="M28.8406 31.4969C28.8406 30.3924 29.736 29.4969 30.8406 29.4969C31.9451 29.4969 32.8406 30.3924 32.8406 31.4969C32.8406 32.6015 31.9451 33.4969 30.8406 33.4969C29.736 33.4969 28.8406 32.6015 28.8406 31.4969Z" fill="url(#paint2_linear_6_867)"/>
<path fill-rule="evenodd" clip-rule="evenodd" d="M10.8406 11.4969C10.8406 10.9447 11.2883 10.4969 11.8406 10.4969H15.8406C16.3172 10.4969 16.7276 10.8333 16.8211 11.3007L17.661 15.4969H33.8406C34.1386 15.4969 34.4211 15.6299 34.6111 15.8595C34.801 16.0891 34.8787 16.3915 34.8229 16.6843L33.2214 25.0818C33.0843 25.7724 32.7086 26.3927 32.1601 26.8342C31.6144 27.2735 30.9322 27.5079 30.2319 27.4969H20.5292C19.829 27.5079 19.1468 27.2735 18.6011 26.8342C18.0528 26.3929 17.6772 25.7729 17.5399 25.0826C17.5398 25.0823 17.54 25.0829 17.5399 25.0826L15.8694 16.7362C15.8626 16.7085 15.857 16.6805 15.8525 16.652L15.0209 12.4969H11.8406C11.2883 12.4969 10.8406 12.0492 10.8406 11.4969ZM18.0613 17.4969L19.5014 24.6921C19.5471 24.9223 19.6724 25.1291 19.8552 25.2763C20.038 25.4234 20.2668 25.5016 20.5014 25.4971L20.5206 25.4969H30.2406L30.2597 25.4971C30.4944 25.5016 30.7231 25.4234 30.906 25.2763C31.0879 25.1298 31.2128 24.9243 31.2591 24.6953L32.6319 17.4969H18.0613Z" fill="url(#paint3_linear_6_867)"/>
</g>
<defs>
<filter id="filter0_b_6_867" x="-39.1594" y="-39.5031" width="124" height="124" filterUnits="userSpaceOnUse" color-interpolation-filters="sRGB">
<feFlood flood-opacity="0" result="BackgroundImageFix"/>
<feGaussianBlur in="BackgroundImageFix" stdDeviation="20"/>
<feComposite in2="SourceAlpha" operator="in" result="effect1_backgroundBlur_6_867"/>
<feBlend mode="normal" in="SourceGraphic" in2="effect1_backgroundBlur_6_867" result="shape"/>
</filter>
<linearGradient id="paint0_linear_6_867" x1="5.34058" y1="8.49695" x2="22.8514" y2="45.7731" gradientUnits="userSpaceOnUse">
<stop stop-color="#DBB12C"/>
<stop offset="0.512473" stop-color="#E3C35E" stop-opacity="0.72"/>
<stop offset="1" stop-color="#F1E1AE"/>
</linearGradient>
<linearGradient id="paint1_linear_6_867" x1="18.2497" y1="30.2242" x2="19.8416" y2="33.613" gradientUnits="userSpaceOnUse">
<stop stop-color="#DBB12C"/>
<stop offset="0.512473" stop-color="#E3C35E" stop-opacity="0.72"/>
<stop offset="1" stop-color="#F1E1AE"/>
</linearGradient>
<linearGradient id="paint2_linear_6_867" x1="29.2497" y1="30.2242" x2="30.8416" y2="33.613" gradientUnits="userSpaceOnUse">
<stop stop-color="#DBB12C"/>
<stop offset="0.512473" stop-color="#E3C35E" stop-opacity="0.72"/>
<stop offset="1" stop-color="#F1E1AE"/>
</linearGradient>
<linearGradient id="paint3_linear_6_867" x1="13.2951" y1="13.5879" x2="18.562" y2="29.4161" gradientUnits="userSpaceOnUse">
<stop stop-color="#DBB12C"/>
<stop offset="0.512473" stop-color="#E3C35E" stop-opacity="0.72"/>
<stop offset="1" stop-color="#F1E1AE"/>
</linearGradient>
<clipPath id="clip0_6_867">
<rect width="24" height="24" fill="white" transform="translate(10.8406 10.4969)"/>
</clipPath>
</defs>
</svg>
