<svg width="18" height="19" viewBox="0 0 18 19" fill="none" xmlns="http://www.w3.org/2000/svg">
<path fill-rule="evenodd" clip-rule="evenodd" d="M12.0334 2.94006L12.0341 3.48974C14.054 3.64804 15.3883 5.02442 15.3905 7.13516L15.3984 13.3135C15.4013 15.6148 13.9556 17.0307 11.6381 17.0344L5.97739 17.0417C3.67444 17.0446 2.21057 15.595 2.20768 13.2871L2.19971 7.18133C2.19682 5.05667 3.48404 3.68395 5.50392 3.49853L5.50319 2.94886C5.50247 2.62638 5.74138 2.3838 6.05992 2.3838C6.37847 2.38306 6.61738 2.62492 6.61811 2.94739L6.61883 3.46042L10.9192 3.45456L10.9185 2.94153C10.9178 2.61906 11.1567 2.3772 11.4752 2.37647C11.7865 2.37573 12.0327 2.61759 12.0334 2.94006ZM3.31501 7.40761L14.2759 7.39295V7.13644C14.2448 5.56071 13.4542 4.734 12.0352 4.61088L12.036 5.17521C12.036 5.49035 11.7905 5.74027 11.4792 5.74027C11.1607 5.741 10.921 5.49182 10.921 5.17667L10.9203 4.58303L6.61994 4.58889L6.62066 5.1818C6.62066 5.49768 6.38247 5.74687 6.06393 5.74687C5.74538 5.7476 5.50574 5.49915 5.50574 5.18327L5.50502 4.61894C4.09328 4.76039 3.31211 5.59003 3.31428 7.17968L3.31501 7.40761ZM11.1744 10.7387V10.7468C11.1816 11.084 11.4568 11.3398 11.7906 11.3324C12.1164 11.3244 12.3764 11.0451 12.3691 10.7079C12.3539 10.3854 12.0925 10.1223 11.7674 10.123C11.4343 10.1303 11.1737 10.4015 11.1744 10.7387ZM11.7725 14.0295C11.4394 14.0222 11.1708 13.7444 11.1701 13.4072C11.1628 13.07 11.43 12.7907 11.7631 12.7827H11.7703C12.1107 12.7827 12.3865 13.0605 12.3865 13.405C12.3872 13.7495 12.1121 14.0288 11.7725 14.0295ZM8.19184 10.7504C8.20632 11.0876 8.48219 11.3508 8.81526 11.3361C9.14109 11.3207 9.40103 11.0422 9.38655 10.705C9.37858 10.3752 9.11068 10.1186 8.78485 10.1193C8.45178 10.134 8.19112 10.4133 8.19184 10.7504ZM8.81811 13.9965C8.48504 14.0112 8.2099 13.748 8.19469 13.4108C8.19469 13.0737 8.45463 12.7951 8.7877 12.7797C9.11353 12.779 9.38216 13.0356 9.3894 13.3647C9.40461 13.7026 9.14394 13.9811 8.81811 13.9965ZM5.20892 10.7761C5.2234 11.1133 5.49927 11.3772 5.83234 11.3618C6.15817 11.3471 6.41811 11.0678 6.4029 10.7307C6.39566 10.4008 6.12776 10.1443 5.8012 10.145C5.46813 10.1597 5.20819 10.4389 5.20892 10.7761ZM5.83529 14.0002C5.50222 14.0156 5.22708 13.7517 5.21187 13.4145C5.21115 13.0773 5.47181 12.7981 5.80488 12.7834C6.13071 12.7827 6.39934 13.0392 6.40658 13.3691C6.42179 13.7062 6.16185 13.9855 5.83529 14.0002Z" fill="url(#paint0_linear_4_566)"/>
<defs>
<linearGradient id="paint0_linear_4_566" x1="3.54958" y1="5.04288" x2="9.77064" y2="16.9617" gradientUnits="userSpaceOnUse">
<stop stop-color="#DBB12C"/>
<stop offset="0.512473" stop-color="#E3C35E" stop-opacity="0.72"/>
<stop offset="1" stop-color="#F1E1AE"/>
</linearGradient>
</defs>
</svg>
