<svg width="89" height="53" viewBox="0 0 89 53" fill="none" xmlns="http://www.w3.org/2000/svg">
<mask id="path-1-outside-1_28_87" maskUnits="userSpaceOnUse" x="-0.168545" y="0.208809" width="90" height="52" fill="black">
<rect fill="white" x="-0.168545" y="0.208809" width="90" height="52"/>
<path d="M15.8634 12.5922C15.8634 15.4137 15.3185 17.4666 14.2288 18.7509C13.1586 20.0352 11.6019 20.6773 9.55872 20.6773C7.24312 20.6773 5.28752 19.9768 3.6919 18.5758C1.78493 16.9023 0.831455 14.4992 0.831455 11.3663C0.831455 8.31127 1.79466 5.81081 3.72108 3.86493C5.37508 2.19148 7.14583 1.35475 9.03333 1.35475C9.94789 1.35475 10.7457 1.52015 11.4268 1.85095C12.3024 2.27904 13.1002 2.97956 13.8202 3.9525L15.3088 1.20881H15.4255V9.67338L15.1629 9.52744C15.1629 7.01726 14.4721 5.00327 13.0905 3.48549C11.9424 2.22067 10.736 1.58826 9.47115 1.58826C7.77824 1.58826 6.56207 2.37634 5.82263 3.9525C5.0832 5.5092 4.71348 7.86371 4.71348 11.016C4.71348 14.11 5.11239 16.4548 5.9102 18.0504C6.70801 19.6265 7.92418 20.4146 9.55872 20.4146C11.4073 20.4146 12.8278 19.8698 13.8202 18.7801C15.0072 17.4958 15.6007 15.4332 15.6007 12.5922H15.8634Z"/>
<path d="M22.2811 7.98047V18.9844C22.2811 19.3736 22.3103 19.6265 22.3687 19.7433C22.4076 19.8017 22.4952 19.8601 22.6314 19.9184C23.04 20.0546 23.8865 20.1227 25.1707 20.1227V20.4146H16.6478V20.1227C17.2121 20.1227 17.718 20.1033 18.1656 20.0644C18.6326 20.0255 19.0315 19.9476 19.3623 19.8309C19.479 19.7336 19.5374 19.4514 19.5374 18.9844V9.93607C19.5374 9.56636 19.4985 9.33285 19.4207 9.23556C19.2845 9.04097 19.158 8.92422 19.0412 8.8853C18.691 8.78801 17.8932 8.73936 16.6478 8.73936V8.44748L22.2811 7.98047ZM20.7341 1.35475C21.2012 1.35475 21.5903 1.51042 21.9017 1.82176C22.213 2.1331 22.3687 2.52228 22.3687 2.98929C22.3687 3.4563 22.213 3.84548 21.9017 4.15682C21.5903 4.46816 21.2012 4.62383 20.7341 4.62383C20.2671 4.62383 19.878 4.46816 19.5666 4.15682C19.2553 3.84548 19.0996 3.4563 19.0996 2.98929C19.0996 2.52228 19.2553 2.1331 19.5666 1.82176C19.878 1.51042 20.2671 1.35475 20.7341 1.35475Z"/>
<path d="M31.3094 13.2635V18.9844C31.3094 19.3736 31.3386 19.6265 31.3969 19.7433C31.4359 19.8017 31.5234 19.8601 31.6596 19.9184C31.8153 19.9768 32.078 20.0255 32.4477 20.0644C32.8369 20.1033 33.1774 20.1227 33.4693 20.1227V20.4146H25.9971V20.1227C26.4252 20.1227 26.8436 20.1033 27.2522 20.0644C27.6803 20.0255 28.0598 19.9476 28.3906 19.8309C28.5073 19.7336 28.5657 19.4514 28.5657 18.9844V10.1404C28.5657 9.96526 28.556 9.79013 28.5365 9.615C28.5365 9.43988 28.4976 9.30366 28.4198 9.20637L28.2446 8.91449C28.05 8.77828 27.3106 8.71017 26.0263 8.71017V8.41829L31.3094 7.92209V11.6874C31.4261 10.8506 31.6791 10.1112 32.0683 9.46906C32.6131 8.57396 33.1872 8.09722 33.7904 8.03884C34.3936 7.96101 34.7828 7.92209 34.9579 7.92209C36.1838 7.92209 37.1567 8.29181 37.8767 9.03124C38.4799 9.65392 38.7816 10.3934 38.7816 11.2495V18.9844C38.7816 19.3736 38.8107 19.6265 38.8691 19.7433C38.908 19.8017 39.0053 19.8601 39.161 19.9184C39.3167 19.9768 39.5988 20.0255 40.0075 20.0644C40.4161 20.1033 40.8053 20.1227 41.175 20.1227V20.4146H33.7028V20.1227C34.0142 20.1227 34.3741 20.1033 34.7828 20.0644C35.1914 20.0255 35.5514 19.9476 35.8627 19.8309C35.9795 19.7336 36.0379 19.4514 36.0379 18.9844V11.5998C36.0379 10.6658 35.96 9.95553 35.8044 9.46906C35.5514 8.67125 35.0844 8.27235 34.4033 8.27235C33.5082 8.27235 32.7785 8.82692 32.2142 9.93607C31.7861 10.7728 31.4845 11.882 31.3094 13.2635Z"/>
<path d="M44.8267 14.4019C44.8267 16.484 45.0699 17.992 45.5564 18.926C46.0623 19.8601 46.8212 20.3271 47.8331 20.3271C48.9033 20.3271 49.8471 19.9671 50.6643 19.2471C51.6567 18.3715 52.1529 17.1845 52.1529 15.6861H52.4156C52.4156 17.1456 51.9486 18.3423 51.0146 19.2763C50.0806 20.2103 48.8352 20.6773 47.2785 20.6773C45.9748 20.6773 44.7878 20.1811 43.7175 19.1887C42.4527 18.0212 41.8203 16.4937 41.8203 14.6062C41.8203 12.563 42.443 10.8993 43.6884 9.615C44.7781 8.50585 46.004 7.95128 47.3661 7.95128C48.6309 7.95128 49.6817 8.321 50.5184 9.06043C51.7443 10.1501 52.3572 11.9306 52.3572 14.4019H44.8267ZM49.9054 14.0224C49.9054 12.1544 49.7303 10.7339 49.3801 9.76095C49.0493 8.76855 48.5044 8.27235 47.7455 8.27235C46.6753 8.27235 45.9164 8.73936 45.4688 9.67338C45.0407 10.6074 44.8267 12.0571 44.8267 14.0224H49.9054Z"/>
<path d="M65.7667 11.5122C65.9224 10.6171 66.1461 9.90689 66.438 9.3815C66.9245 8.54477 67.5958 8.07776 68.452 7.98047C68.5882 7.98047 68.7342 7.97074 68.8898 7.95128C69.065 7.93182 69.1914 7.92209 69.2693 7.92209C70.4757 7.92209 71.4389 8.29181 72.1589 9.03124C72.7621 9.65392 73.0637 10.3934 73.0637 11.2495V18.9844C73.0637 19.3541 73.0929 19.5974 73.1513 19.7141C73.1902 19.792 73.2778 19.8601 73.414 19.9184C73.5697 19.9768 73.8324 20.0255 74.2021 20.0644C74.5913 20.1033 74.9123 20.1227 75.1653 20.1227V20.4146H68.2185V20.1227C68.6855 20.1227 69.0455 20.113 69.2985 20.0936C69.5514 20.0546 69.8239 19.9573 70.1157 19.8017C70.2325 19.7044 70.2909 19.432 70.2909 18.9844V11.5998C70.2909 10.6852 70.213 9.97499 70.0574 9.46906C69.8044 8.67125 69.3471 8.27235 68.6855 8.27235C68.0045 8.27235 67.4402 8.59342 66.9926 9.23556C66.4867 9.95553 66.0975 11.2593 65.8251 13.1468V18.9844C65.8251 19.3736 65.8543 19.6265 65.9126 19.7433C65.9516 19.8017 66.0391 19.8601 66.1753 19.9184C66.3115 19.9573 66.5548 20.006 66.905 20.0644C67.2748 20.1033 67.6153 20.1227 67.9266 20.1227V20.4146H60.9798V20.1227C61.7193 20.1227 62.2933 20.0546 62.7019 19.9184L62.9063 19.8309C63.023 19.7336 63.0814 19.4514 63.0814 18.9844V11.5998C63.0814 10.6658 63.0036 9.95553 62.8479 9.46906C62.5949 8.67125 62.1279 8.27235 61.4468 8.27235C60.5712 8.27235 59.8902 8.82692 59.4037 9.93607C59.0729 10.7144 58.8102 11.8236 58.6156 13.2635V18.9844C58.6156 19.3736 58.6448 19.6265 58.7032 19.7433C58.7421 19.8017 58.8296 19.8601 58.9659 19.9184C59.1215 19.9768 59.3842 20.0255 59.7539 20.0644C60.1431 20.1033 60.4642 20.1227 60.7171 20.1227V20.4146H53.3325V20.1227C53.7412 20.1227 54.1498 20.1033 54.5584 20.0644C54.9865 20.0255 55.366 19.9476 55.6968 19.8309C55.8135 19.7336 55.8719 19.4514 55.8719 18.9844V10.1404C55.8719 9.96526 55.8622 9.79013 55.8427 9.615C55.8427 9.43988 55.8038 9.30366 55.726 9.20637C55.5898 9.01178 55.473 8.89503 55.3757 8.85611C55.0838 8.75882 54.4125 8.71017 53.3617 8.71017V8.41829L58.6156 7.92209V11.6874C58.7518 10.7533 58.9561 10.0139 59.2285 9.46906C59.6761 8.57396 60.3377 8.07776 61.2133 7.98047C61.4079 7.96101 61.5733 7.95128 61.7095 7.95128C61.8652 7.93182 61.982 7.92209 62.0598 7.92209C63.3052 7.92209 64.2489 8.27235 64.8911 8.97287C65.4748 9.615 65.7667 10.4615 65.7667 11.5122Z"/>
<path d="M83.0393 17.2039V13.3219C82.8058 13.6332 82.4555 13.8278 81.9885 13.9057C81.5409 13.964 81.1031 14.0224 80.675 14.0808C80.1107 14.217 79.6632 14.5283 79.3324 15.0148C78.9432 15.5986 78.7486 16.4159 78.7486 17.4666C78.7486 18.5952 78.8556 19.3639 79.0697 19.7725C79.3032 20.1617 79.6632 20.3563 80.1496 20.3563C80.8891 20.3563 81.5507 20.0546 82.1344 19.4514C82.7377 18.8287 83.0393 18.0796 83.0393 17.2039ZM83.1268 11.9501V10.2571C83.1268 9.47879 83.0004 8.95341 82.7474 8.68098C82.4944 8.40856 81.9496 8.27235 81.1129 8.27235C80.4318 8.27235 79.8383 8.39883 79.3324 8.65179C78.8264 8.90476 78.4956 9.24529 78.34 9.67338C78.4178 9.65392 78.5151 9.64419 78.6319 9.64419C79.0016 9.64419 79.3032 9.79013 79.5367 10.082C79.7702 10.3739 79.8869 10.7047 79.8869 11.0744C79.8869 11.5025 79.741 11.8528 79.4491 12.1252C79.1572 12.3976 78.8167 12.5338 78.4275 12.5338C78.1746 12.5338 77.9508 12.4657 77.7562 12.3295C77.1919 11.9598 76.9097 11.4928 76.9097 10.9285C76.9097 10.656 76.9681 10.3447 77.0849 9.99445C77.3573 9.23556 78.0384 8.68098 79.128 8.33072C79.9064 8.07776 80.6945 7.95128 81.4923 7.95128C82.9322 7.95128 84.0219 8.2237 84.7614 8.76855C85.423 9.25502 85.7538 9.86797 85.7538 10.6074V17.058C85.7538 18.2255 85.783 18.9455 85.8413 19.2179C85.9775 19.8795 86.3278 20.2103 86.8921 20.2103C87.398 20.2103 87.7386 19.9476 87.9137 19.4222C88.0888 18.8968 88.1764 18.138 88.1764 17.1456C88.1764 16.8731 88.1667 16.6007 88.1472 16.3283C88.1472 16.0559 88.1472 15.7737 88.1472 15.4818V15.2191H88.4683V16.5034C88.4683 16.912 88.478 17.3012 88.4975 17.6709C88.4975 18.7995 88.3612 19.5584 88.0888 19.9476C87.7386 20.4341 87.0283 20.6773 85.9581 20.6773C85.1214 20.6773 84.4987 20.5314 84.09 20.2395C83.6036 19.8892 83.2825 19.2958 83.1268 18.459C82.7182 19.4125 82.1052 20.0546 81.288 20.3854C80.8015 20.58 80.1496 20.6773 79.3324 20.6773C78.5151 20.6773 77.8049 20.4827 77.2016 20.0936C76.3649 19.5682 75.9465 18.7704 75.9465 17.7001C75.9465 16.6494 76.3552 15.764 77.1724 15.044C77.9897 14.3435 78.9821 13.9446 80.1496 13.8473C81.3172 13.75 82.1052 13.5943 82.5139 13.3803C82.9225 13.1662 83.1268 12.6895 83.1268 11.9501Z"/>
<path d="M24.7489 32.5883V40.9069H24.3402C23.8927 37.7351 23.1825 35.5557 22.2095 34.3687C21.4117 33.3763 20.2344 32.8801 18.6777 32.8801C18.2886 32.8801 18.0745 32.8996 18.0356 32.9385C17.9578 32.9969 17.9188 33.2499 17.9188 33.6974V49.459C17.9188 50.0233 17.9578 50.3833 18.0356 50.539C18.0745 50.6168 18.2107 50.7044 18.4442 50.8017C18.6777 50.8795 19.1253 50.9476 19.7869 51.006C20.4485 51.0644 21.3436 51.0936 22.4722 51.0936V51.4146H9.77535V51.0936C10.8845 51.0936 11.7699 51.0644 12.4315 51.006C13.0931 50.9476 13.5406 50.8795 13.7741 50.8017C14.0076 50.7044 14.1536 50.5974 14.212 50.4806C14.2898 50.3444 14.3287 50.0039 14.3287 49.459V33.7266C14.3287 33.2207 14.2703 32.9482 14.1536 32.9093C14.0952 32.8899 13.8909 32.8801 13.5406 32.8801C12.0228 32.8801 10.865 33.3666 10.0672 34.3395C9.09429 35.546 8.36459 37.7156 7.87812 40.8485H7.46948V32.5883H24.7489Z"/>
<path d="M30.9179 38.9805V49.9844C30.9179 50.3736 30.947 50.6265 31.0054 50.7433C31.0443 50.8017 31.1319 50.8601 31.2681 50.9184C31.6767 51.0546 32.5232 51.1227 33.8075 51.1227V51.4146H25.2845V51.1227C25.8488 51.1227 26.3548 51.1033 26.8023 51.0644C27.2693 51.0255 27.6682 50.9476 27.999 50.8309C28.1158 50.7336 28.1742 50.4514 28.1742 49.9844V40.9361C28.1742 40.5664 28.1352 40.3329 28.0574 40.2356C27.9212 40.041 27.7947 39.9242 27.678 39.8853C27.3277 39.788 26.5299 39.7394 25.2845 39.7394V39.4475L30.9179 38.9805ZM29.3709 32.3548C29.8379 32.3548 30.2271 32.5104 30.5384 32.8218C30.8497 33.1331 31.0054 33.5223 31.0054 33.9893C31.0054 34.4563 30.8497 34.8455 30.5384 35.1568C30.2271 35.4682 29.8379 35.6238 29.3709 35.6238C28.9039 35.6238 28.5147 35.4682 28.2034 35.1568C27.892 34.8455 27.7363 34.4563 27.7363 33.9893C27.7363 33.5223 27.892 33.1331 28.2034 32.8218C28.5147 32.5104 28.9039 32.3548 29.3709 32.3548Z"/>
<path d="M43.3028 41.1404C43.2249 40.5177 42.9525 40.0507 42.4855 39.7394C42.0185 39.4086 41.4347 39.2432 40.7342 39.2432C39.6445 39.2432 38.8856 39.7296 38.4575 40.7026C38.0294 41.6755 37.8154 43.2128 37.8154 45.3143C37.8154 47.2602 38.0878 48.739 38.6326 49.7509C39.1775 50.7433 39.9072 51.2395 40.8218 51.2395C41.9115 51.2395 42.8357 50.8795 43.5946 50.1595C44.5481 49.245 45.0249 47.9023 45.0249 46.1316H45.2876C45.2876 47.8439 44.84 49.1963 43.9449 50.1887C43.0498 51.1811 41.8239 51.6773 40.2672 51.6773C39.0024 51.6773 37.8251 51.1714 36.7354 50.1595C35.4317 48.9531 34.7798 47.4158 34.7798 45.5478C34.7798 43.5436 35.4414 41.8993 36.7646 40.615C37.9127 39.5059 39.1094 38.9513 40.3548 38.9513C41.1915 38.9513 41.9698 39.0972 42.6898 39.3891C43.7795 39.8367 44.4508 40.5274 44.7038 41.4615C44.8011 41.8117 44.8497 42.1133 44.8497 42.3663C44.8497 42.989 44.5579 43.4657 43.9741 43.7965C43.76 43.9327 43.5071 44.0008 43.2152 44.0008C42.8649 44.0008 42.5439 43.8744 42.252 43.6214C41.9796 43.349 41.8433 42.989 41.8433 42.5414C41.8433 42.1328 41.9698 41.802 42.2228 41.549C42.4952 41.2766 42.8552 41.1404 43.3028 41.1404Z"/>
<path d="M51.6939 46.1608V49.9844C51.6939 50.3736 51.7231 50.6265 51.7815 50.7433C51.8204 50.8017 51.908 50.8601 52.0442 50.9184C52.1998 50.9768 52.4625 51.0255 52.8322 51.0644C53.202 51.1033 53.5036 51.1227 53.7371 51.1227V51.4146H46.2065V51.1227C47.3741 51.1227 48.1621 51.0546 48.5708 50.9184L48.7751 50.8309C48.8918 50.7336 48.9502 50.4514 48.9502 49.9844V34.3979C48.9502 34.0087 48.8918 33.7363 48.7751 33.5807C48.6583 33.4055 48.5513 33.3082 48.454 33.2888C48.1427 33.1915 47.4032 33.1428 46.2357 33.1428V32.851L51.6939 32.3548V45.6062L55.3716 41.9577C55.9554 41.3934 56.2473 40.8874 56.2473 40.4399C56.2473 40.0702 56.0429 39.788 55.6343 39.5934C55.2257 39.3794 54.603 39.2724 53.7663 39.2724V38.9513H60.4504V39.2724C59.7109 39.2724 59.1272 39.3794 58.6991 39.5934C58.2904 39.8075 57.7261 40.2453 57.0062 40.9069L55.1965 42.6874L58.9326 50.1012C59.1466 50.5293 59.4093 50.8114 59.7206 50.9476C60.0514 51.0644 60.5866 51.1227 61.326 51.1227V51.4146H54.2041V51.1227C54.8462 51.1227 55.3424 51.113 55.6927 51.0936C56.0429 51.0546 56.2181 50.9087 56.2181 50.6557C56.2181 50.539 56.1402 50.3249 55.9846 50.0136L53.2409 44.5846L51.6939 46.1608Z"/>
<path d="M64.7225 45.4019C64.7225 47.484 64.9658 48.992 65.4523 49.926C65.9582 50.8601 66.7171 51.3271 67.7289 51.3271C68.7992 51.3271 69.7429 50.9671 70.5602 50.2471C71.5526 49.3715 72.0488 48.1845 72.0488 46.6861H72.3115C72.3115 48.1456 71.8445 49.3423 70.9104 50.2763C69.9764 51.2103 68.7311 51.6773 67.1744 51.6773C65.8706 51.6773 64.6836 51.1811 63.6134 50.1887C62.3486 49.0212 61.7162 47.4937 61.7162 45.6062C61.7162 43.563 62.3388 41.8993 63.5842 40.615C64.6739 39.5059 65.8998 38.9513 67.2619 38.9513C68.5267 38.9513 69.5775 39.321 70.4142 40.0604C71.6401 41.1501 72.2531 42.9306 72.2531 45.4019H64.7225ZM69.8013 45.0224C69.8013 43.1544 69.6262 41.7339 69.2759 40.7609C68.9451 39.7686 68.4003 39.2724 67.6414 39.2724C66.5711 39.2724 65.8122 39.7394 65.3647 40.6734C64.9366 41.6074 64.7225 43.0571 64.7225 45.0224H69.8013Z"/>
<path d="M81.5762 45.1975V46.5402C81.5762 46.9878 81.5859 47.4159 81.6054 47.8245C81.6054 49.1866 81.4497 50.1206 81.1384 50.6265C80.7103 51.3271 79.8833 51.6773 78.6574 51.6773C77.4899 51.6773 76.6337 51.3952 76.0888 50.8309C75.544 50.2666 75.2716 49.459 75.2716 48.4082V40.1188H72.9365V39.8269C74.5127 39.4377 75.6997 38.5135 76.4975 37.054C77.1396 35.8865 77.4607 34.5731 77.4607 33.1136H77.9861V39.2724H81.3719V40.1188H77.9861V48.058C77.9861 49.1088 78.025 49.7898 78.1028 50.1012C78.2974 50.8406 78.7352 51.2103 79.4163 51.2103C80.2141 51.2103 80.7395 50.7822 80.9925 49.926C81.1676 49.3423 81.2551 48.2331 81.2551 46.5986V45.1975H81.5762Z"/>
</mask>
<path d="M15.8634 12.5922C15.8634 15.4137 15.3185 17.4666 14.2288 18.7509C13.1586 20.0352 11.6019 20.6773 9.55872 20.6773C7.24312 20.6773 5.28752 19.9768 3.6919 18.5758C1.78493 16.9023 0.831455 14.4992 0.831455 11.3663C0.831455 8.31127 1.79466 5.81081 3.72108 3.86493C5.37508 2.19148 7.14583 1.35475 9.03333 1.35475C9.94789 1.35475 10.7457 1.52015 11.4268 1.85095C12.3024 2.27904 13.1002 2.97956 13.8202 3.9525L15.3088 1.20881H15.4255V9.67338L15.1629 9.52744C15.1629 7.01726 14.4721 5.00327 13.0905 3.48549C11.9424 2.22067 10.736 1.58826 9.47115 1.58826C7.77824 1.58826 6.56207 2.37634 5.82263 3.9525C5.0832 5.5092 4.71348 7.86371 4.71348 11.016C4.71348 14.11 5.11239 16.4548 5.9102 18.0504C6.70801 19.6265 7.92418 20.4146 9.55872 20.4146C11.4073 20.4146 12.8278 19.8698 13.8202 18.7801C15.0072 17.4958 15.6007 15.4332 15.6007 12.5922H15.8634Z" fill="url(#paint0_linear_28_87)" fill-opacity="0.87"/>
<path d="M22.2811 7.98047V18.9844C22.2811 19.3736 22.3103 19.6265 22.3687 19.7433C22.4076 19.8017 22.4952 19.8601 22.6314 19.9184C23.04 20.0546 23.8865 20.1227 25.1707 20.1227V20.4146H16.6478V20.1227C17.2121 20.1227 17.718 20.1033 18.1656 20.0644C18.6326 20.0255 19.0315 19.9476 19.3623 19.8309C19.479 19.7336 19.5374 19.4514 19.5374 18.9844V9.93607C19.5374 9.56636 19.4985 9.33285 19.4207 9.23556C19.2845 9.04097 19.158 8.92422 19.0412 8.8853C18.691 8.78801 17.8932 8.73936 16.6478 8.73936V8.44748L22.2811 7.98047ZM20.7341 1.35475C21.2012 1.35475 21.5903 1.51042 21.9017 1.82176C22.213 2.1331 22.3687 2.52228 22.3687 2.98929C22.3687 3.4563 22.213 3.84548 21.9017 4.15682C21.5903 4.46816 21.2012 4.62383 20.7341 4.62383C20.2671 4.62383 19.878 4.46816 19.5666 4.15682C19.2553 3.84548 19.0996 3.4563 19.0996 2.98929C19.0996 2.52228 19.2553 2.1331 19.5666 1.82176C19.878 1.51042 20.2671 1.35475 20.7341 1.35475Z" fill="url(#paint1_linear_28_87)" fill-opacity="0.87"/>
<path d="M31.3094 13.2635V18.9844C31.3094 19.3736 31.3386 19.6265 31.3969 19.7433C31.4359 19.8017 31.5234 19.8601 31.6596 19.9184C31.8153 19.9768 32.078 20.0255 32.4477 20.0644C32.8369 20.1033 33.1774 20.1227 33.4693 20.1227V20.4146H25.9971V20.1227C26.4252 20.1227 26.8436 20.1033 27.2522 20.0644C27.6803 20.0255 28.0598 19.9476 28.3906 19.8309C28.5073 19.7336 28.5657 19.4514 28.5657 18.9844V10.1404C28.5657 9.96526 28.556 9.79013 28.5365 9.615C28.5365 9.43988 28.4976 9.30366 28.4198 9.20637L28.2446 8.91449C28.05 8.77828 27.3106 8.71017 26.0263 8.71017V8.41829L31.3094 7.92209V11.6874C31.4261 10.8506 31.6791 10.1112 32.0683 9.46906C32.6131 8.57396 33.1872 8.09722 33.7904 8.03884C34.3936 7.96101 34.7828 7.92209 34.9579 7.92209C36.1838 7.92209 37.1567 8.29181 37.8767 9.03124C38.4799 9.65392 38.7816 10.3934 38.7816 11.2495V18.9844C38.7816 19.3736 38.8107 19.6265 38.8691 19.7433C38.908 19.8017 39.0053 19.8601 39.161 19.9184C39.3167 19.9768 39.5988 20.0255 40.0075 20.0644C40.4161 20.1033 40.8053 20.1227 41.175 20.1227V20.4146H33.7028V20.1227C34.0142 20.1227 34.3741 20.1033 34.7828 20.0644C35.1914 20.0255 35.5514 19.9476 35.8627 19.8309C35.9795 19.7336 36.0379 19.4514 36.0379 18.9844V11.5998C36.0379 10.6658 35.96 9.95553 35.8044 9.46906C35.5514 8.67125 35.0844 8.27235 34.4033 8.27235C33.5082 8.27235 32.7785 8.82692 32.2142 9.93607C31.7861 10.7728 31.4845 11.882 31.3094 13.2635Z" fill="url(#paint2_linear_28_87)" fill-opacity="0.87"/>
<path d="M44.8267 14.4019C44.8267 16.484 45.0699 17.992 45.5564 18.926C46.0623 19.8601 46.8212 20.3271 47.8331 20.3271C48.9033 20.3271 49.8471 19.9671 50.6643 19.2471C51.6567 18.3715 52.1529 17.1845 52.1529 15.6861H52.4156C52.4156 17.1456 51.9486 18.3423 51.0146 19.2763C50.0806 20.2103 48.8352 20.6773 47.2785 20.6773C45.9748 20.6773 44.7878 20.1811 43.7175 19.1887C42.4527 18.0212 41.8203 16.4937 41.8203 14.6062C41.8203 12.563 42.443 10.8993 43.6884 9.615C44.7781 8.50585 46.004 7.95128 47.3661 7.95128C48.6309 7.95128 49.6817 8.321 50.5184 9.06043C51.7443 10.1501 52.3572 11.9306 52.3572 14.4019H44.8267ZM49.9054 14.0224C49.9054 12.1544 49.7303 10.7339 49.3801 9.76095C49.0493 8.76855 48.5044 8.27235 47.7455 8.27235C46.6753 8.27235 45.9164 8.73936 45.4688 9.67338C45.0407 10.6074 44.8267 12.0571 44.8267 14.0224H49.9054Z" fill="url(#paint3_linear_28_87)" fill-opacity="0.87"/>
<path d="M65.7667 11.5122C65.9224 10.6171 66.1461 9.90689 66.438 9.3815C66.9245 8.54477 67.5958 8.07776 68.452 7.98047C68.5882 7.98047 68.7342 7.97074 68.8898 7.95128C69.065 7.93182 69.1914 7.92209 69.2693 7.92209C70.4757 7.92209 71.4389 8.29181 72.1589 9.03124C72.7621 9.65392 73.0637 10.3934 73.0637 11.2495V18.9844C73.0637 19.3541 73.0929 19.5974 73.1513 19.7141C73.1902 19.792 73.2778 19.8601 73.414 19.9184C73.5697 19.9768 73.8324 20.0255 74.2021 20.0644C74.5913 20.1033 74.9123 20.1227 75.1653 20.1227V20.4146H68.2185V20.1227C68.6855 20.1227 69.0455 20.113 69.2985 20.0936C69.5514 20.0546 69.8239 19.9573 70.1157 19.8017C70.2325 19.7044 70.2909 19.432 70.2909 18.9844V11.5998C70.2909 10.6852 70.213 9.97499 70.0574 9.46906C69.8044 8.67125 69.3471 8.27235 68.6855 8.27235C68.0045 8.27235 67.4402 8.59342 66.9926 9.23556C66.4867 9.95553 66.0975 11.2593 65.8251 13.1468V18.9844C65.8251 19.3736 65.8543 19.6265 65.9126 19.7433C65.9516 19.8017 66.0391 19.8601 66.1753 19.9184C66.3115 19.9573 66.5548 20.006 66.905 20.0644C67.2748 20.1033 67.6153 20.1227 67.9266 20.1227V20.4146H60.9798V20.1227C61.7193 20.1227 62.2933 20.0546 62.7019 19.9184L62.9063 19.8309C63.023 19.7336 63.0814 19.4514 63.0814 18.9844V11.5998C63.0814 10.6658 63.0036 9.95553 62.8479 9.46906C62.5949 8.67125 62.1279 8.27235 61.4468 8.27235C60.5712 8.27235 59.8902 8.82692 59.4037 9.93607C59.0729 10.7144 58.8102 11.8236 58.6156 13.2635V18.9844C58.6156 19.3736 58.6448 19.6265 58.7032 19.7433C58.7421 19.8017 58.8296 19.8601 58.9659 19.9184C59.1215 19.9768 59.3842 20.0255 59.7539 20.0644C60.1431 20.1033 60.4642 20.1227 60.7171 20.1227V20.4146H53.3325V20.1227C53.7412 20.1227 54.1498 20.1033 54.5584 20.0644C54.9865 20.0255 55.366 19.9476 55.6968 19.8309C55.8135 19.7336 55.8719 19.4514 55.8719 18.9844V10.1404C55.8719 9.96526 55.8622 9.79013 55.8427 9.615C55.8427 9.43988 55.8038 9.30366 55.726 9.20637C55.5898 9.01178 55.473 8.89503 55.3757 8.85611C55.0838 8.75882 54.4125 8.71017 53.3617 8.71017V8.41829L58.6156 7.92209V11.6874C58.7518 10.7533 58.9561 10.0139 59.2285 9.46906C59.6761 8.57396 60.3377 8.07776 61.2133 7.98047C61.4079 7.96101 61.5733 7.95128 61.7095 7.95128C61.8652 7.93182 61.982 7.92209 62.0598 7.92209C63.3052 7.92209 64.2489 8.27235 64.8911 8.97287C65.4748 9.615 65.7667 10.4615 65.7667 11.5122Z" fill="url(#paint4_linear_28_87)" fill-opacity="0.87"/>
<path d="M83.0393 17.2039V13.3219C82.8058 13.6332 82.4555 13.8278 81.9885 13.9057C81.5409 13.964 81.1031 14.0224 80.675 14.0808C80.1107 14.217 79.6632 14.5283 79.3324 15.0148C78.9432 15.5986 78.7486 16.4159 78.7486 17.4666C78.7486 18.5952 78.8556 19.3639 79.0697 19.7725C79.3032 20.1617 79.6632 20.3563 80.1496 20.3563C80.8891 20.3563 81.5507 20.0546 82.1344 19.4514C82.7377 18.8287 83.0393 18.0796 83.0393 17.2039ZM83.1268 11.9501V10.2571C83.1268 9.47879 83.0004 8.95341 82.7474 8.68098C82.4944 8.40856 81.9496 8.27235 81.1129 8.27235C80.4318 8.27235 79.8383 8.39883 79.3324 8.65179C78.8264 8.90476 78.4956 9.24529 78.34 9.67338C78.4178 9.65392 78.5151 9.64419 78.6319 9.64419C79.0016 9.64419 79.3032 9.79013 79.5367 10.082C79.7702 10.3739 79.8869 10.7047 79.8869 11.0744C79.8869 11.5025 79.741 11.8528 79.4491 12.1252C79.1572 12.3976 78.8167 12.5338 78.4275 12.5338C78.1746 12.5338 77.9508 12.4657 77.7562 12.3295C77.1919 11.9598 76.9097 11.4928 76.9097 10.9285C76.9097 10.656 76.9681 10.3447 77.0849 9.99445C77.3573 9.23556 78.0384 8.68098 79.128 8.33072C79.9064 8.07776 80.6945 7.95128 81.4923 7.95128C82.9322 7.95128 84.0219 8.2237 84.7614 8.76855C85.423 9.25502 85.7538 9.86797 85.7538 10.6074V17.058C85.7538 18.2255 85.783 18.9455 85.8413 19.2179C85.9775 19.8795 86.3278 20.2103 86.8921 20.2103C87.398 20.2103 87.7386 19.9476 87.9137 19.4222C88.0888 18.8968 88.1764 18.138 88.1764 17.1456C88.1764 16.8731 88.1667 16.6007 88.1472 16.3283C88.1472 16.0559 88.1472 15.7737 88.1472 15.4818V15.2191H88.4683V16.5034C88.4683 16.912 88.478 17.3012 88.4975 17.6709C88.4975 18.7995 88.3612 19.5584 88.0888 19.9476C87.7386 20.4341 87.0283 20.6773 85.9581 20.6773C85.1214 20.6773 84.4987 20.5314 84.09 20.2395C83.6036 19.8892 83.2825 19.2958 83.1268 18.459C82.7182 19.4125 82.1052 20.0546 81.288 20.3854C80.8015 20.58 80.1496 20.6773 79.3324 20.6773C78.5151 20.6773 77.8049 20.4827 77.2016 20.0936C76.3649 19.5682 75.9465 18.7704 75.9465 17.7001C75.9465 16.6494 76.3552 15.764 77.1724 15.044C77.9897 14.3435 78.9821 13.9446 80.1496 13.8473C81.3172 13.75 82.1052 13.5943 82.5139 13.3803C82.9225 13.1662 83.1268 12.6895 83.1268 11.9501Z" fill="url(#paint5_linear_28_87)" fill-opacity="0.87"/>
<path d="M24.7489 32.5883V40.9069H24.3402C23.8927 37.7351 23.1825 35.5557 22.2095 34.3687C21.4117 33.3763 20.2344 32.8801 18.6777 32.8801C18.2886 32.8801 18.0745 32.8996 18.0356 32.9385C17.9578 32.9969 17.9188 33.2499 17.9188 33.6974V49.459C17.9188 50.0233 17.9578 50.3833 18.0356 50.539C18.0745 50.6168 18.2107 50.7044 18.4442 50.8017C18.6777 50.8795 19.1253 50.9476 19.7869 51.006C20.4485 51.0644 21.3436 51.0936 22.4722 51.0936V51.4146H9.77535V51.0936C10.8845 51.0936 11.7699 51.0644 12.4315 51.006C13.0931 50.9476 13.5406 50.8795 13.7741 50.8017C14.0076 50.7044 14.1536 50.5974 14.212 50.4806C14.2898 50.3444 14.3287 50.0039 14.3287 49.459V33.7266C14.3287 33.2207 14.2703 32.9482 14.1536 32.9093C14.0952 32.8899 13.8909 32.8801 13.5406 32.8801C12.0228 32.8801 10.865 33.3666 10.0672 34.3395C9.09429 35.546 8.36459 37.7156 7.87812 40.8485H7.46948V32.5883H24.7489Z" fill="url(#paint6_linear_28_87)" fill-opacity="0.87"/>
<path d="M30.9179 38.9805V49.9844C30.9179 50.3736 30.947 50.6265 31.0054 50.7433C31.0443 50.8017 31.1319 50.8601 31.2681 50.9184C31.6767 51.0546 32.5232 51.1227 33.8075 51.1227V51.4146H25.2845V51.1227C25.8488 51.1227 26.3548 51.1033 26.8023 51.0644C27.2693 51.0255 27.6682 50.9476 27.999 50.8309C28.1158 50.7336 28.1742 50.4514 28.1742 49.9844V40.9361C28.1742 40.5664 28.1352 40.3329 28.0574 40.2356C27.9212 40.041 27.7947 39.9242 27.678 39.8853C27.3277 39.788 26.5299 39.7394 25.2845 39.7394V39.4475L30.9179 38.9805ZM29.3709 32.3548C29.8379 32.3548 30.2271 32.5104 30.5384 32.8218C30.8497 33.1331 31.0054 33.5223 31.0054 33.9893C31.0054 34.4563 30.8497 34.8455 30.5384 35.1568C30.2271 35.4682 29.8379 35.6238 29.3709 35.6238C28.9039 35.6238 28.5147 35.4682 28.2034 35.1568C27.892 34.8455 27.7363 34.4563 27.7363 33.9893C27.7363 33.5223 27.892 33.1331 28.2034 32.8218C28.5147 32.5104 28.9039 32.3548 29.3709 32.3548Z" fill="url(#paint7_linear_28_87)" fill-opacity="0.87"/>
<path d="M43.3028 41.1404C43.2249 40.5177 42.9525 40.0507 42.4855 39.7394C42.0185 39.4086 41.4347 39.2432 40.7342 39.2432C39.6445 39.2432 38.8856 39.7296 38.4575 40.7026C38.0294 41.6755 37.8154 43.2128 37.8154 45.3143C37.8154 47.2602 38.0878 48.739 38.6326 49.7509C39.1775 50.7433 39.9072 51.2395 40.8218 51.2395C41.9115 51.2395 42.8357 50.8795 43.5946 50.1595C44.5481 49.245 45.0249 47.9023 45.0249 46.1316H45.2876C45.2876 47.8439 44.84 49.1963 43.9449 50.1887C43.0498 51.1811 41.8239 51.6773 40.2672 51.6773C39.0024 51.6773 37.8251 51.1714 36.7354 50.1595C35.4317 48.9531 34.7798 47.4158 34.7798 45.5478C34.7798 43.5436 35.4414 41.8993 36.7646 40.615C37.9127 39.5059 39.1094 38.9513 40.3548 38.9513C41.1915 38.9513 41.9698 39.0972 42.6898 39.3891C43.7795 39.8367 44.4508 40.5274 44.7038 41.4615C44.8011 41.8117 44.8497 42.1133 44.8497 42.3663C44.8497 42.989 44.5579 43.4657 43.9741 43.7965C43.76 43.9327 43.5071 44.0008 43.2152 44.0008C42.8649 44.0008 42.5439 43.8744 42.252 43.6214C41.9796 43.349 41.8433 42.989 41.8433 42.5414C41.8433 42.1328 41.9698 41.802 42.2228 41.549C42.4952 41.2766 42.8552 41.1404 43.3028 41.1404Z" fill="url(#paint8_linear_28_87)" fill-opacity="0.87"/>
<path d="M51.6939 46.1608V49.9844C51.6939 50.3736 51.7231 50.6265 51.7815 50.7433C51.8204 50.8017 51.908 50.8601 52.0442 50.9184C52.1998 50.9768 52.4625 51.0255 52.8322 51.0644C53.202 51.1033 53.5036 51.1227 53.7371 51.1227V51.4146H46.2065V51.1227C47.3741 51.1227 48.1621 51.0546 48.5708 50.9184L48.7751 50.8309C48.8918 50.7336 48.9502 50.4514 48.9502 49.9844V34.3979C48.9502 34.0087 48.8918 33.7363 48.7751 33.5807C48.6583 33.4055 48.5513 33.3082 48.454 33.2888C48.1427 33.1915 47.4032 33.1428 46.2357 33.1428V32.851L51.6939 32.3548V45.6062L55.3716 41.9577C55.9554 41.3934 56.2473 40.8874 56.2473 40.4399C56.2473 40.0702 56.0429 39.788 55.6343 39.5934C55.2257 39.3794 54.603 39.2724 53.7663 39.2724V38.9513H60.4504V39.2724C59.7109 39.2724 59.1272 39.3794 58.6991 39.5934C58.2904 39.8075 57.7261 40.2453 57.0062 40.9069L55.1965 42.6874L58.9326 50.1012C59.1466 50.5293 59.4093 50.8114 59.7206 50.9476C60.0514 51.0644 60.5866 51.1227 61.326 51.1227V51.4146H54.2041V51.1227C54.8462 51.1227 55.3424 51.113 55.6927 51.0936C56.0429 51.0546 56.2181 50.9087 56.2181 50.6557C56.2181 50.539 56.1402 50.3249 55.9846 50.0136L53.2409 44.5846L51.6939 46.1608Z" fill="url(#paint9_linear_28_87)" fill-opacity="0.87"/>
<path d="M64.7225 45.4019C64.7225 47.484 64.9658 48.992 65.4523 49.926C65.9582 50.8601 66.7171 51.3271 67.7289 51.3271C68.7992 51.3271 69.7429 50.9671 70.5602 50.2471C71.5526 49.3715 72.0488 48.1845 72.0488 46.6861H72.3115C72.3115 48.1456 71.8445 49.3423 70.9104 50.2763C69.9764 51.2103 68.7311 51.6773 67.1744 51.6773C65.8706 51.6773 64.6836 51.1811 63.6134 50.1887C62.3486 49.0212 61.7162 47.4937 61.7162 45.6062C61.7162 43.563 62.3388 41.8993 63.5842 40.615C64.6739 39.5059 65.8998 38.9513 67.2619 38.9513C68.5267 38.9513 69.5775 39.321 70.4142 40.0604C71.6401 41.1501 72.2531 42.9306 72.2531 45.4019H64.7225ZM69.8013 45.0224C69.8013 43.1544 69.6262 41.7339 69.2759 40.7609C68.9451 39.7686 68.4003 39.2724 67.6414 39.2724C66.5711 39.2724 65.8122 39.7394 65.3647 40.6734C64.9366 41.6074 64.7225 43.0571 64.7225 45.0224H69.8013Z" fill="url(#paint10_linear_28_87)" fill-opacity="0.87"/>
<path d="M81.5762 45.1975V46.5402C81.5762 46.9878 81.5859 47.4159 81.6054 47.8245C81.6054 49.1866 81.4497 50.1206 81.1384 50.6265C80.7103 51.3271 79.8833 51.6773 78.6574 51.6773C77.4899 51.6773 76.6337 51.3952 76.0888 50.8309C75.544 50.2666 75.2716 49.459 75.2716 48.4082V40.1188H72.9365V39.8269C74.5127 39.4377 75.6997 38.5135 76.4975 37.054C77.1396 35.8865 77.4607 34.5731 77.4607 33.1136H77.9861V39.2724H81.3719V40.1188H77.9861V48.058C77.9861 49.1088 78.025 49.7898 78.1028 50.1012C78.2974 50.8406 78.7352 51.2103 79.4163 51.2103C80.2141 51.2103 80.7395 50.7822 80.9925 49.926C81.1676 49.3423 81.2551 48.2331 81.2551 46.5986V45.1975H81.5762Z" fill="url(#paint11_linear_28_87)" fill-opacity="0.87"/>
<path d="M15.8634 12.5922C15.8634 15.4137 15.3185 17.4666 14.2288 18.7509C13.1586 20.0352 11.6019 20.6773 9.55872 20.6773C7.24312 20.6773 5.28752 19.9768 3.6919 18.5758C1.78493 16.9023 0.831455 14.4992 0.831455 11.3663C0.831455 8.31127 1.79466 5.81081 3.72108 3.86493C5.37508 2.19148 7.14583 1.35475 9.03333 1.35475C9.94789 1.35475 10.7457 1.52015 11.4268 1.85095C12.3024 2.27904 13.1002 2.97956 13.8202 3.9525L15.3088 1.20881H15.4255V9.67338L15.1629 9.52744C15.1629 7.01726 14.4721 5.00327 13.0905 3.48549C11.9424 2.22067 10.736 1.58826 9.47115 1.58826C7.77824 1.58826 6.56207 2.37634 5.82263 3.9525C5.0832 5.5092 4.71348 7.86371 4.71348 11.016C4.71348 14.11 5.11239 16.4548 5.9102 18.0504C6.70801 19.6265 7.92418 20.4146 9.55872 20.4146C11.4073 20.4146 12.8278 19.8698 13.8202 18.7801C15.0072 17.4958 15.6007 15.4332 15.6007 12.5922H15.8634Z" stroke="#BB9A2D" stroke-width="0.8" mask="url(#path-1-outside-1_28_87)"/>
<path d="M22.2811 7.98047V18.9844C22.2811 19.3736 22.3103 19.6265 22.3687 19.7433C22.4076 19.8017 22.4952 19.8601 22.6314 19.9184C23.04 20.0546 23.8865 20.1227 25.1707 20.1227V20.4146H16.6478V20.1227C17.2121 20.1227 17.718 20.1033 18.1656 20.0644C18.6326 20.0255 19.0315 19.9476 19.3623 19.8309C19.479 19.7336 19.5374 19.4514 19.5374 18.9844V9.93607C19.5374 9.56636 19.4985 9.33285 19.4207 9.23556C19.2845 9.04097 19.158 8.92422 19.0412 8.8853C18.691 8.78801 17.8932 8.73936 16.6478 8.73936V8.44748L22.2811 7.98047ZM20.7341 1.35475C21.2012 1.35475 21.5903 1.51042 21.9017 1.82176C22.213 2.1331 22.3687 2.52228 22.3687 2.98929C22.3687 3.4563 22.213 3.84548 21.9017 4.15682C21.5903 4.46816 21.2012 4.62383 20.7341 4.62383C20.2671 4.62383 19.878 4.46816 19.5666 4.15682C19.2553 3.84548 19.0996 3.4563 19.0996 2.98929C19.0996 2.52228 19.2553 2.1331 19.5666 1.82176C19.878 1.51042 20.2671 1.35475 20.7341 1.35475Z" stroke="#BB9A2D" stroke-width="0.8" mask="url(#path-1-outside-1_28_87)"/>
<path d="M31.3094 13.2635V18.9844C31.3094 19.3736 31.3386 19.6265 31.3969 19.7433C31.4359 19.8017 31.5234 19.8601 31.6596 19.9184C31.8153 19.9768 32.078 20.0255 32.4477 20.0644C32.8369 20.1033 33.1774 20.1227 33.4693 20.1227V20.4146H25.9971V20.1227C26.4252 20.1227 26.8436 20.1033 27.2522 20.0644C27.6803 20.0255 28.0598 19.9476 28.3906 19.8309C28.5073 19.7336 28.5657 19.4514 28.5657 18.9844V10.1404C28.5657 9.96526 28.556 9.79013 28.5365 9.615C28.5365 9.43988 28.4976 9.30366 28.4198 9.20637L28.2446 8.91449C28.05 8.77828 27.3106 8.71017 26.0263 8.71017V8.41829L31.3094 7.92209V11.6874C31.4261 10.8506 31.6791 10.1112 32.0683 9.46906C32.6131 8.57396 33.1872 8.09722 33.7904 8.03884C34.3936 7.96101 34.7828 7.92209 34.9579 7.92209C36.1838 7.92209 37.1567 8.29181 37.8767 9.03124C38.4799 9.65392 38.7816 10.3934 38.7816 11.2495V18.9844C38.7816 19.3736 38.8107 19.6265 38.8691 19.7433C38.908 19.8017 39.0053 19.8601 39.161 19.9184C39.3167 19.9768 39.5988 20.0255 40.0075 20.0644C40.4161 20.1033 40.8053 20.1227 41.175 20.1227V20.4146H33.7028V20.1227C34.0142 20.1227 34.3741 20.1033 34.7828 20.0644C35.1914 20.0255 35.5514 19.9476 35.8627 19.8309C35.9795 19.7336 36.0379 19.4514 36.0379 18.9844V11.5998C36.0379 10.6658 35.96 9.95553 35.8044 9.46906C35.5514 8.67125 35.0844 8.27235 34.4033 8.27235C33.5082 8.27235 32.7785 8.82692 32.2142 9.93607C31.7861 10.7728 31.4845 11.882 31.3094 13.2635Z" stroke="#BB9A2D" stroke-width="0.8" mask="url(#path-1-outside-1_28_87)"/>
<path d="M44.8267 14.4019C44.8267 16.484 45.0699 17.992 45.5564 18.926C46.0623 19.8601 46.8212 20.3271 47.8331 20.3271C48.9033 20.3271 49.8471 19.9671 50.6643 19.2471C51.6567 18.3715 52.1529 17.1845 52.1529 15.6861H52.4156C52.4156 17.1456 51.9486 18.3423 51.0146 19.2763C50.0806 20.2103 48.8352 20.6773 47.2785 20.6773C45.9748 20.6773 44.7878 20.1811 43.7175 19.1887C42.4527 18.0212 41.8203 16.4937 41.8203 14.6062C41.8203 12.563 42.443 10.8993 43.6884 9.615C44.7781 8.50585 46.004 7.95128 47.3661 7.95128C48.6309 7.95128 49.6817 8.321 50.5184 9.06043C51.7443 10.1501 52.3572 11.9306 52.3572 14.4019H44.8267ZM49.9054 14.0224C49.9054 12.1544 49.7303 10.7339 49.3801 9.76095C49.0493 8.76855 48.5044 8.27235 47.7455 8.27235C46.6753 8.27235 45.9164 8.73936 45.4688 9.67338C45.0407 10.6074 44.8267 12.0571 44.8267 14.0224H49.9054Z" stroke="#BB9A2D" stroke-width="0.8" mask="url(#path-1-outside-1_28_87)"/>
<path d="M65.7667 11.5122C65.9224 10.6171 66.1461 9.90689 66.438 9.3815C66.9245 8.54477 67.5958 8.07776 68.452 7.98047C68.5882 7.98047 68.7342 7.97074 68.8898 7.95128C69.065 7.93182 69.1914 7.92209 69.2693 7.92209C70.4757 7.92209 71.4389 8.29181 72.1589 9.03124C72.7621 9.65392 73.0637 10.3934 73.0637 11.2495V18.9844C73.0637 19.3541 73.0929 19.5974 73.1513 19.7141C73.1902 19.792 73.2778 19.8601 73.414 19.9184C73.5697 19.9768 73.8324 20.0255 74.2021 20.0644C74.5913 20.1033 74.9123 20.1227 75.1653 20.1227V20.4146H68.2185V20.1227C68.6855 20.1227 69.0455 20.113 69.2985 20.0936C69.5514 20.0546 69.8239 19.9573 70.1157 19.8017C70.2325 19.7044 70.2909 19.432 70.2909 18.9844V11.5998C70.2909 10.6852 70.213 9.97499 70.0574 9.46906C69.8044 8.67125 69.3471 8.27235 68.6855 8.27235C68.0045 8.27235 67.4402 8.59342 66.9926 9.23556C66.4867 9.95553 66.0975 11.2593 65.8251 13.1468V18.9844C65.8251 19.3736 65.8543 19.6265 65.9126 19.7433C65.9516 19.8017 66.0391 19.8601 66.1753 19.9184C66.3115 19.9573 66.5548 20.006 66.905 20.0644C67.2748 20.1033 67.6153 20.1227 67.9266 20.1227V20.4146H60.9798V20.1227C61.7193 20.1227 62.2933 20.0546 62.7019 19.9184L62.9063 19.8309C63.023 19.7336 63.0814 19.4514 63.0814 18.9844V11.5998C63.0814 10.6658 63.0036 9.95553 62.8479 9.46906C62.5949 8.67125 62.1279 8.27235 61.4468 8.27235C60.5712 8.27235 59.8902 8.82692 59.4037 9.93607C59.0729 10.7144 58.8102 11.8236 58.6156 13.2635V18.9844C58.6156 19.3736 58.6448 19.6265 58.7032 19.7433C58.7421 19.8017 58.8296 19.8601 58.9659 19.9184C59.1215 19.9768 59.3842 20.0255 59.7539 20.0644C60.1431 20.1033 60.4642 20.1227 60.7171 20.1227V20.4146H53.3325V20.1227C53.7412 20.1227 54.1498 20.1033 54.5584 20.0644C54.9865 20.0255 55.366 19.9476 55.6968 19.8309C55.8135 19.7336 55.8719 19.4514 55.8719 18.9844V10.1404C55.8719 9.96526 55.8622 9.79013 55.8427 9.615C55.8427 9.43988 55.8038 9.30366 55.726 9.20637C55.5898 9.01178 55.473 8.89503 55.3757 8.85611C55.0838 8.75882 54.4125 8.71017 53.3617 8.71017V8.41829L58.6156 7.92209V11.6874C58.7518 10.7533 58.9561 10.0139 59.2285 9.46906C59.6761 8.57396 60.3377 8.07776 61.2133 7.98047C61.4079 7.96101 61.5733 7.95128 61.7095 7.95128C61.8652 7.93182 61.982 7.92209 62.0598 7.92209C63.3052 7.92209 64.2489 8.27235 64.8911 8.97287C65.4748 9.615 65.7667 10.4615 65.7667 11.5122Z" stroke="#BB9A2D" stroke-width="0.8" mask="url(#path-1-outside-1_28_87)"/>
<path d="M83.0393 17.2039V13.3219C82.8058 13.6332 82.4555 13.8278 81.9885 13.9057C81.5409 13.964 81.1031 14.0224 80.675 14.0808C80.1107 14.217 79.6632 14.5283 79.3324 15.0148C78.9432 15.5986 78.7486 16.4159 78.7486 17.4666C78.7486 18.5952 78.8556 19.3639 79.0697 19.7725C79.3032 20.1617 79.6632 20.3563 80.1496 20.3563C80.8891 20.3563 81.5507 20.0546 82.1344 19.4514C82.7377 18.8287 83.0393 18.0796 83.0393 17.2039ZM83.1268 11.9501V10.2571C83.1268 9.47879 83.0004 8.95341 82.7474 8.68098C82.4944 8.40856 81.9496 8.27235 81.1129 8.27235C80.4318 8.27235 79.8383 8.39883 79.3324 8.65179C78.8264 8.90476 78.4956 9.24529 78.34 9.67338C78.4178 9.65392 78.5151 9.64419 78.6319 9.64419C79.0016 9.64419 79.3032 9.79013 79.5367 10.082C79.7702 10.3739 79.8869 10.7047 79.8869 11.0744C79.8869 11.5025 79.741 11.8528 79.4491 12.1252C79.1572 12.3976 78.8167 12.5338 78.4275 12.5338C78.1746 12.5338 77.9508 12.4657 77.7562 12.3295C77.1919 11.9598 76.9097 11.4928 76.9097 10.9285C76.9097 10.656 76.9681 10.3447 77.0849 9.99445C77.3573 9.23556 78.0384 8.68098 79.128 8.33072C79.9064 8.07776 80.6945 7.95128 81.4923 7.95128C82.9322 7.95128 84.0219 8.2237 84.7614 8.76855C85.423 9.25502 85.7538 9.86797 85.7538 10.6074V17.058C85.7538 18.2255 85.783 18.9455 85.8413 19.2179C85.9775 19.8795 86.3278 20.2103 86.8921 20.2103C87.398 20.2103 87.7386 19.9476 87.9137 19.4222C88.0888 18.8968 88.1764 18.138 88.1764 17.1456C88.1764 16.8731 88.1667 16.6007 88.1472 16.3283C88.1472 16.0559 88.1472 15.7737 88.1472 15.4818V15.2191H88.4683V16.5034C88.4683 16.912 88.478 17.3012 88.4975 17.6709C88.4975 18.7995 88.3612 19.5584 88.0888 19.9476C87.7386 20.4341 87.0283 20.6773 85.9581 20.6773C85.1214 20.6773 84.4987 20.5314 84.09 20.2395C83.6036 19.8892 83.2825 19.2958 83.1268 18.459C82.7182 19.4125 82.1052 20.0546 81.288 20.3854C80.8015 20.58 80.1496 20.6773 79.3324 20.6773C78.5151 20.6773 77.8049 20.4827 77.2016 20.0936C76.3649 19.5682 75.9465 18.7704 75.9465 17.7001C75.9465 16.6494 76.3552 15.764 77.1724 15.044C77.9897 14.3435 78.9821 13.9446 80.1496 13.8473C81.3172 13.75 82.1052 13.5943 82.5139 13.3803C82.9225 13.1662 83.1268 12.6895 83.1268 11.9501Z" stroke="#BB9A2D" stroke-width="0.8" mask="url(#path-1-outside-1_28_87)"/>
<path d="M24.7489 32.5883V40.9069H24.3402C23.8927 37.7351 23.1825 35.5557 22.2095 34.3687C21.4117 33.3763 20.2344 32.8801 18.6777 32.8801C18.2886 32.8801 18.0745 32.8996 18.0356 32.9385C17.9578 32.9969 17.9188 33.2499 17.9188 33.6974V49.459C17.9188 50.0233 17.9578 50.3833 18.0356 50.539C18.0745 50.6168 18.2107 50.7044 18.4442 50.8017C18.6777 50.8795 19.1253 50.9476 19.7869 51.006C20.4485 51.0644 21.3436 51.0936 22.4722 51.0936V51.4146H9.77535V51.0936C10.8845 51.0936 11.7699 51.0644 12.4315 51.006C13.0931 50.9476 13.5406 50.8795 13.7741 50.8017C14.0076 50.7044 14.1536 50.5974 14.212 50.4806C14.2898 50.3444 14.3287 50.0039 14.3287 49.459V33.7266C14.3287 33.2207 14.2703 32.9482 14.1536 32.9093C14.0952 32.8899 13.8909 32.8801 13.5406 32.8801C12.0228 32.8801 10.865 33.3666 10.0672 34.3395C9.09429 35.546 8.36459 37.7156 7.87812 40.8485H7.46948V32.5883H24.7489Z" stroke="#BB9A2D" stroke-width="0.8" mask="url(#path-1-outside-1_28_87)"/>
<path d="M30.9179 38.9805V49.9844C30.9179 50.3736 30.947 50.6265 31.0054 50.7433C31.0443 50.8017 31.1319 50.8601 31.2681 50.9184C31.6767 51.0546 32.5232 51.1227 33.8075 51.1227V51.4146H25.2845V51.1227C25.8488 51.1227 26.3548 51.1033 26.8023 51.0644C27.2693 51.0255 27.6682 50.9476 27.999 50.8309C28.1158 50.7336 28.1742 50.4514 28.1742 49.9844V40.9361C28.1742 40.5664 28.1352 40.3329 28.0574 40.2356C27.9212 40.041 27.7947 39.9242 27.678 39.8853C27.3277 39.788 26.5299 39.7394 25.2845 39.7394V39.4475L30.9179 38.9805ZM29.3709 32.3548C29.8379 32.3548 30.2271 32.5104 30.5384 32.8218C30.8497 33.1331 31.0054 33.5223 31.0054 33.9893C31.0054 34.4563 30.8497 34.8455 30.5384 35.1568C30.2271 35.4682 29.8379 35.6238 29.3709 35.6238C28.9039 35.6238 28.5147 35.4682 28.2034 35.1568C27.892 34.8455 27.7363 34.4563 27.7363 33.9893C27.7363 33.5223 27.892 33.1331 28.2034 32.8218C28.5147 32.5104 28.9039 32.3548 29.3709 32.3548Z" stroke="#BB9A2D" stroke-width="0.8" mask="url(#path-1-outside-1_28_87)"/>
<path d="M43.3028 41.1404C43.2249 40.5177 42.9525 40.0507 42.4855 39.7394C42.0185 39.4086 41.4347 39.2432 40.7342 39.2432C39.6445 39.2432 38.8856 39.7296 38.4575 40.7026C38.0294 41.6755 37.8154 43.2128 37.8154 45.3143C37.8154 47.2602 38.0878 48.739 38.6326 49.7509C39.1775 50.7433 39.9072 51.2395 40.8218 51.2395C41.9115 51.2395 42.8357 50.8795 43.5946 50.1595C44.5481 49.245 45.0249 47.9023 45.0249 46.1316H45.2876C45.2876 47.8439 44.84 49.1963 43.9449 50.1887C43.0498 51.1811 41.8239 51.6773 40.2672 51.6773C39.0024 51.6773 37.8251 51.1714 36.7354 50.1595C35.4317 48.9531 34.7798 47.4158 34.7798 45.5478C34.7798 43.5436 35.4414 41.8993 36.7646 40.615C37.9127 39.5059 39.1094 38.9513 40.3548 38.9513C41.1915 38.9513 41.9698 39.0972 42.6898 39.3891C43.7795 39.8367 44.4508 40.5274 44.7038 41.4615C44.8011 41.8117 44.8497 42.1133 44.8497 42.3663C44.8497 42.989 44.5579 43.4657 43.9741 43.7965C43.76 43.9327 43.5071 44.0008 43.2152 44.0008C42.8649 44.0008 42.5439 43.8744 42.252 43.6214C41.9796 43.349 41.8433 42.989 41.8433 42.5414C41.8433 42.1328 41.9698 41.802 42.2228 41.549C42.4952 41.2766 42.8552 41.1404 43.3028 41.1404Z" stroke="#BB9A2D" stroke-width="0.8" mask="url(#path-1-outside-1_28_87)"/>
<path d="M51.6939 46.1608V49.9844C51.6939 50.3736 51.7231 50.6265 51.7815 50.7433C51.8204 50.8017 51.908 50.8601 52.0442 50.9184C52.1998 50.9768 52.4625 51.0255 52.8322 51.0644C53.202 51.1033 53.5036 51.1227 53.7371 51.1227V51.4146H46.2065V51.1227C47.3741 51.1227 48.1621 51.0546 48.5708 50.9184L48.7751 50.8309C48.8918 50.7336 48.9502 50.4514 48.9502 49.9844V34.3979C48.9502 34.0087 48.8918 33.7363 48.7751 33.5807C48.6583 33.4055 48.5513 33.3082 48.454 33.2888C48.1427 33.1915 47.4032 33.1428 46.2357 33.1428V32.851L51.6939 32.3548V45.6062L55.3716 41.9577C55.9554 41.3934 56.2473 40.8874 56.2473 40.4399C56.2473 40.0702 56.0429 39.788 55.6343 39.5934C55.2257 39.3794 54.603 39.2724 53.7663 39.2724V38.9513H60.4504V39.2724C59.7109 39.2724 59.1272 39.3794 58.6991 39.5934C58.2904 39.8075 57.7261 40.2453 57.0062 40.9069L55.1965 42.6874L58.9326 50.1012C59.1466 50.5293 59.4093 50.8114 59.7206 50.9476C60.0514 51.0644 60.5866 51.1227 61.326 51.1227V51.4146H54.2041V51.1227C54.8462 51.1227 55.3424 51.113 55.6927 51.0936C56.0429 51.0546 56.2181 50.9087 56.2181 50.6557C56.2181 50.539 56.1402 50.3249 55.9846 50.0136L53.2409 44.5846L51.6939 46.1608Z" stroke="#BB9A2D" stroke-width="0.8" mask="url(#path-1-outside-1_28_87)"/>
<path d="M64.7225 45.4019C64.7225 47.484 64.9658 48.992 65.4523 49.926C65.9582 50.8601 66.7171 51.3271 67.7289 51.3271C68.7992 51.3271 69.7429 50.9671 70.5602 50.2471C71.5526 49.3715 72.0488 48.1845 72.0488 46.6861H72.3115C72.3115 48.1456 71.8445 49.3423 70.9104 50.2763C69.9764 51.2103 68.7311 51.6773 67.1744 51.6773C65.8706 51.6773 64.6836 51.1811 63.6134 50.1887C62.3486 49.0212 61.7162 47.4937 61.7162 45.6062C61.7162 43.563 62.3388 41.8993 63.5842 40.615C64.6739 39.5059 65.8998 38.9513 67.2619 38.9513C68.5267 38.9513 69.5775 39.321 70.4142 40.0604C71.6401 41.1501 72.2531 42.9306 72.2531 45.4019H64.7225ZM69.8013 45.0224C69.8013 43.1544 69.6262 41.7339 69.2759 40.7609C68.9451 39.7686 68.4003 39.2724 67.6414 39.2724C66.5711 39.2724 65.8122 39.7394 65.3647 40.6734C64.9366 41.6074 64.7225 43.0571 64.7225 45.0224H69.8013Z" stroke="#BB9A2D" stroke-width="0.8" mask="url(#path-1-outside-1_28_87)"/>
<path d="M81.5762 45.1975V46.5402C81.5762 46.9878 81.5859 47.4159 81.6054 47.8245C81.6054 49.1866 81.4497 50.1206 81.1384 50.6265C80.7103 51.3271 79.8833 51.6773 78.6574 51.6773C77.4899 51.6773 76.6337 51.3952 76.0888 50.8309C75.544 50.2666 75.2716 49.459 75.2716 48.4082V40.1188H72.9365V39.8269C74.5127 39.4377 75.6997 38.5135 76.4975 37.054C77.1396 35.8865 77.4607 34.5731 77.4607 33.1136H77.9861V39.2724H81.3719V40.1188H77.9861V48.058C77.9861 49.1088 78.025 49.7898 78.1028 50.1012C78.2974 50.8406 78.7352 51.2103 79.4163 51.2103C80.2141 51.2103 80.7395 50.7822 80.9925 49.926C81.1676 49.3423 81.2551 48.2331 81.2551 46.5986V45.1975H81.5762Z" stroke="#BB9A2D" stroke-width="0.8" mask="url(#path-1-outside-1_28_87)"/>
<defs>
<linearGradient id="paint0_linear_28_87" x1="-2.16691" y1="7.68736" x2="12.8905" y2="68.0476" gradientUnits="userSpaceOnUse">
<stop stop-color="#DBB12C"/>
<stop offset="0.512473" stop-color="#E3C35E" stop-opacity="0.72"/>
<stop offset="1" stop-color="#F1E1AE"/>
</linearGradient>
<linearGradient id="paint1_linear_28_87" x1="-2.16691" y1="7.68736" x2="12.8905" y2="68.0476" gradientUnits="userSpaceOnUse">
<stop stop-color="#DBB12C"/>
<stop offset="0.512473" stop-color="#E3C35E" stop-opacity="0.72"/>
<stop offset="1" stop-color="#F1E1AE"/>
</linearGradient>
<linearGradient id="paint2_linear_28_87" x1="-2.16691" y1="7.68736" x2="12.8905" y2="68.0476" gradientUnits="userSpaceOnUse">
<stop stop-color="#DBB12C"/>
<stop offset="0.512473" stop-color="#E3C35E" stop-opacity="0.72"/>
<stop offset="1" stop-color="#F1E1AE"/>
</linearGradient>
<linearGradient id="paint3_linear_28_87" x1="-2.16691" y1="7.68736" x2="12.8905" y2="68.0476" gradientUnits="userSpaceOnUse">
<stop stop-color="#DBB12C"/>
<stop offset="0.512473" stop-color="#E3C35E" stop-opacity="0.72"/>
<stop offset="1" stop-color="#F1E1AE"/>
</linearGradient>
<linearGradient id="paint4_linear_28_87" x1="-2.16691" y1="7.68736" x2="12.8905" y2="68.0476" gradientUnits="userSpaceOnUse">
<stop stop-color="#DBB12C"/>
<stop offset="0.512473" stop-color="#E3C35E" stop-opacity="0.72"/>
<stop offset="1" stop-color="#F1E1AE"/>
</linearGradient>
<linearGradient id="paint5_linear_28_87" x1="-2.16691" y1="7.68736" x2="12.8905" y2="68.0476" gradientUnits="userSpaceOnUse">
<stop stop-color="#DBB12C"/>
<stop offset="0.512473" stop-color="#E3C35E" stop-opacity="0.72"/>
<stop offset="1" stop-color="#F1E1AE"/>
</linearGradient>
<linearGradient id="paint6_linear_28_87" x1="-2.16691" y1="7.68736" x2="12.8905" y2="68.0476" gradientUnits="userSpaceOnUse">
<stop stop-color="#DBB12C"/>
<stop offset="0.512473" stop-color="#E3C35E" stop-opacity="0.72"/>
<stop offset="1" stop-color="#F1E1AE"/>
</linearGradient>
<linearGradient id="paint7_linear_28_87" x1="-2.16691" y1="7.68736" x2="12.8905" y2="68.0476" gradientUnits="userSpaceOnUse">
<stop stop-color="#DBB12C"/>
<stop offset="0.512473" stop-color="#E3C35E" stop-opacity="0.72"/>
<stop offset="1" stop-color="#F1E1AE"/>
</linearGradient>
<linearGradient id="paint8_linear_28_87" x1="-2.16691" y1="7.68736" x2="12.8905" y2="68.0476" gradientUnits="userSpaceOnUse">
<stop stop-color="#DBB12C"/>
<stop offset="0.512473" stop-color="#E3C35E" stop-opacity="0.72"/>
<stop offset="1" stop-color="#F1E1AE"/>
</linearGradient>
<linearGradient id="paint9_linear_28_87" x1="-2.16691" y1="7.68736" x2="12.8905" y2="68.0476" gradientUnits="userSpaceOnUse">
<stop stop-color="#DBB12C"/>
<stop offset="0.512473" stop-color="#E3C35E" stop-opacity="0.72"/>
<stop offset="1" stop-color="#F1E1AE"/>
</linearGradient>
<linearGradient id="paint10_linear_28_87" x1="-2.16691" y1="7.68736" x2="12.8905" y2="68.0476" gradientUnits="userSpaceOnUse">
<stop stop-color="#DBB12C"/>
<stop offset="0.512473" stop-color="#E3C35E" stop-opacity="0.72"/>
<stop offset="1" stop-color="#F1E1AE"/>
</linearGradient>
<linearGradient id="paint11_linear_28_87" x1="-2.16691" y1="7.68736" x2="12.8905" y2="68.0476" gradientUnits="userSpaceOnUse">
<stop stop-color="#DBB12C"/>
<stop offset="0.512473" stop-color="#E3C35E" stop-opacity="0.72"/>
<stop offset="1" stop-color="#F1E1AE"/>
</linearGradient>
</defs>
</svg>
