<svg width="18" height="19" viewBox="0 0 18 19" fill="none" xmlns="http://www.w3.org/2000/svg">
<path fill-rule="evenodd" clip-rule="evenodd" d="M8.80007 2.70826C5.15499 2.70826 2.20007 5.66318 2.20007 9.30826C2.20007 12.9533 5.15499 15.9083 8.80007 15.9083C12.4451 15.9083 15.4001 12.9533 15.4001 9.30826C15.4001 5.66318 12.4451 2.70826 8.80007 2.70826ZM0.733398 9.30826C0.733398 4.85316 4.34497 1.24159 8.80007 1.24159C13.2552 1.24159 16.8667 4.85316 16.8667 9.30826C16.8667 13.7634 13.2552 17.3749 8.80007 17.3749C4.34497 17.3749 0.733398 13.7634 0.733398 9.30826Z" fill="url(#paint0_linear_4_687)"/>
<path fill-rule="evenodd" clip-rule="evenodd" d="M8.79998 4.17492C9.20499 4.17492 9.53332 4.50325 9.53332 4.90826V8.85503L12.0613 10.119C12.4235 10.3001 12.5704 10.7406 12.3892 11.1029C12.2081 11.4651 11.7676 11.612 11.4054 11.4308L8.47203 9.96417C8.22359 9.83995 8.06665 9.58602 8.06665 9.30826V4.90826C8.06665 4.50325 8.39497 4.17492 8.79998 4.17492Z" fill="url(#paint1_linear_4_687)"/>
<defs>
<linearGradient id="paint0_linear_4_687" x1="2.3834" y1="4.17492" x2="8.80403" y2="17.8429" gradientUnits="userSpaceOnUse">
<stop stop-color="#DBB12C"/>
<stop offset="0.512473" stop-color="#E3C35E" stop-opacity="0.72"/>
<stop offset="1" stop-color="#F1E1AE"/>
</linearGradient>
<linearGradient id="paint1_linear_4_687" x1="8.51667" y1="5.50829" x2="12.1978" y2="10.2101" gradientUnits="userSpaceOnUse">
<stop stop-color="#DBB12C"/>
<stop offset="0.512473" stop-color="#E3C35E" stop-opacity="0.72"/>
<stop offset="1" stop-color="#F1E1AE"/>
</linearGradient>
</defs>
</svg>
