<svg width="18" height="16" viewBox="0 0 18 16" fill="none" xmlns="http://www.w3.org/2000/svg">
<path d="M8.81356 10.2972C11.5582 10.2972 13.9018 10.7958 13.9018 12.791C13.9018 14.7853 11.5733 15.3021 8.81356 15.3021C6.06887 15.3021 3.72529 14.8035 3.72529 12.8091C3.72529 10.814 6.05383 10.2972 8.81356 10.2972ZM13.202 9.09581C14.2513 9.07352 15.3794 9.23862 15.7962 9.35584C16.6794 9.55478 17.2603 9.96091 17.5009 10.5511C17.7043 11.0357 17.7043 11.5978 17.5009 12.0816C17.1328 12.997 15.9459 13.2909 15.4847 13.3668C15.3894 13.3833 15.3128 13.2884 15.3228 13.1786C15.5584 10.6419 13.684 9.43921 13.1991 9.16267C13.1783 9.15029 13.174 9.13131 13.1762 9.11975C13.1776 9.11149 13.1862 9.09829 13.202 9.09581ZM4.30963 9.0941L4.50723 9.09614C4.52299 9.09862 4.53086 9.11182 4.5323 9.11925C4.53445 9.13164 4.53015 9.1498 4.51009 9.163C4.02447 9.43954 2.15004 10.6423 2.38569 13.1781C2.39571 13.2887 2.31979 13.3828 2.22453 13.3672C1.76326 13.2912 0.576429 12.9973 0.208275 12.0819C0.00414273 11.5973 0.00414273 11.036 0.208275 10.5515C0.448936 9.96124 1.0291 9.55511 1.91224 9.35534C2.32982 9.23895 3.4572 9.07385 4.50723 9.09614L4.30963 9.0941ZM8.81356 0.636818C10.6823 0.636818 12.1807 2.36206 12.1807 4.51656C12.1807 6.67023 10.6823 8.39713 8.81356 8.39713C6.94485 8.39713 5.44645 6.67023 5.44645 4.51656C5.44645 2.36206 6.94485 0.636818 8.81356 0.636818ZM13.3846 1.28383C15.1896 1.28383 16.607 3.24103 16.1243 5.42112C15.7984 6.88881 14.6187 7.8637 13.3044 7.82408C13.1726 7.81995 13.043 7.80592 12.9176 7.78116C12.8267 7.763 12.7808 7.64495 12.8324 7.55745C13.3338 6.70721 13.6195 5.68444 13.6195 4.58656C13.6195 3.4408 13.3073 2.37263 12.7651 1.4968C12.7479 1.46956 12.735 1.42746 12.7522 1.39609C12.7665 1.3705 12.793 1.35729 12.8181 1.35069C13.0007 1.30777 13.1884 1.28383 13.3846 1.28383ZM4.32351 1.28374C4.51976 1.28374 4.70742 1.30768 4.89078 1.35061C4.91513 1.35721 4.94235 1.37124 4.95668 1.39601C4.97315 1.42738 4.96097 1.46948 4.94378 1.49672C4.40158 2.37255 4.08929 3.44072 4.08929 4.58648C4.08929 5.68436 4.37508 6.70713 4.87646 7.55737C4.92803 7.64487 4.88219 7.76291 4.79122 7.78107C4.66516 7.80666 4.53624 7.81987 4.40445 7.824C3.09012 7.86362 1.91045 6.88873 1.58456 5.42103C1.10108 3.24095 2.51855 1.28374 4.32351 1.28374Z" fill="url(#paint0_linear_4_589)"/>
<defs>
<linearGradient id="paint0_linear_4_589" x1="1.855" y1="3.30323" x2="7.00302" y2="16.4538" gradientUnits="userSpaceOnUse">
<stop stop-color="#DBB12C"/>
<stop offset="0.512473" stop-color="#E3C35E" stop-opacity="0.72"/>
<stop offset="1" stop-color="#F1E1AE"/>
</linearGradient>
</defs>
</svg>
