<svg width="45" height="45" viewBox="0 0 45 45" fill="none" xmlns="http://www.w3.org/2000/svg">
<path fill-rule="evenodd" clip-rule="evenodd" d="M40.8511 19.7607C40.5972 20.0073 40.2527 20.1483 39.89 20.1483C38.5481 20.1483 37.4601 21.2052 37.4601 22.4912C37.4601 23.786 38.5354 24.8376 39.8646 24.8517C40.6135 24.8588 41.25 25.3661 41.25 26.0937V30.6122C41.25 34.4154 38.0766 37.5 34.1598 37.5H28.2483C27.6372 37.5 27.1422 37.0191 27.1422 36.4254V32.6204C27.1422 31.8805 26.5438 31.2992 25.7822 31.2992C25.0387 31.2992 24.4221 31.8805 24.4221 32.6204V36.4254C24.4221 37.0191 23.9271 37.5 23.3178 37.5H10.8402C6.94149 37.5 3.75 34.4172 3.75 30.6122V26.0937C3.75 25.3661 4.38648 24.8588 5.1354 24.8517C6.46639 24.8376 7.53989 23.786 7.53989 22.4912C7.53989 21.2405 6.48815 20.2892 5.11001 20.2892C4.74734 20.2892 4.4028 20.1483 4.14894 19.9016C3.89507 19.655 3.75 19.3203 3.75 18.968V14.4055C3.75 10.6075 6.94874 7.5 10.8583 7.5H23.3178C23.9271 7.5 24.4221 7.98092 24.4221 8.57457V13.0843C24.4221 13.8065 25.0387 14.4055 25.7822 14.4055C26.5438 14.4055 27.1422 13.8065 27.1422 13.0843V8.57457C27.1422 7.98092 27.6372 7.5 28.2483 7.5H34.1598C38.0766 7.5 41.25 10.5828 41.25 14.3878V18.8271C41.25 19.1794 41.1049 19.5141 40.8511 19.7607ZM25.7822 27.8817C26.5438 27.8817 27.1422 27.2827 27.1422 26.5605V19.5141C27.1422 18.7918 26.5438 18.1929 25.7822 18.1929C25.0387 18.1929 24.4221 18.7918 24.4221 19.5141V26.5605C24.4221 27.2827 25.0387 27.8817 25.7822 27.8817Z" fill="#21232F"/>
</svg>
