<svg width="18" height="18" viewBox="0 0 18 18" fill="none" xmlns="http://www.w3.org/2000/svg">
<path fill-rule="evenodd" clip-rule="evenodd" d="M15.9758 7.83615C15.8765 7.9326 15.7418 7.98771 15.5999 7.98771C15.0752 7.98771 14.6497 8.40106 14.6497 8.90396C14.6497 9.41032 15.0702 9.8216 15.59 9.82711C15.8829 9.82986 16.1318 10.0283 16.1318 10.3128V12.0799C16.1318 13.5672 14.8908 14.7735 13.359 14.7735H11.0472C10.8082 14.7735 10.6146 14.5854 10.6146 14.3533V12.8652C10.6146 12.5759 10.3806 12.3485 10.0827 12.3485C9.79199 12.3485 9.55088 12.5759 9.55088 12.8652V14.3533C9.55088 14.5854 9.35728 14.7735 9.11901 14.7735H4.23934C2.71466 14.7735 1.46655 13.5679 1.46655 12.0799V10.3128C1.46655 10.0283 1.71546 9.82986 2.00834 9.82711C2.52886 9.8216 2.94868 9.41032 2.94868 8.90396C2.94868 8.41484 2.53737 8.04282 1.99842 8.04282C1.85659 8.04282 1.72185 7.98771 1.62257 7.89126C1.52328 7.79481 1.46655 7.66392 1.46655 7.52614V5.74185C1.46655 4.25655 2.7175 3.04131 4.24643 3.04131H9.11901C9.35728 3.04131 9.55088 3.22938 9.55088 3.46154V5.22516C9.55088 5.50762 9.79199 5.74185 10.0827 5.74185C10.3806 5.74185 10.6146 5.50762 10.6146 5.22516V3.46154C10.6146 3.22938 10.8082 3.04131 11.0472 3.04131H13.359C14.8908 3.04131 16.1318 4.24691 16.1318 5.73496V7.47102C16.1318 7.60881 16.0751 7.7397 15.9758 7.83615ZM10.0827 11.0126C10.3806 11.0126 10.6146 10.7783 10.6146 10.4958V7.73978C10.6146 7.45729 10.3806 7.22302 10.0827 7.22302C9.79192 7.22302 9.55078 7.45729 9.55078 7.73978V10.4958C9.55078 10.7783 9.79192 11.0126 10.0827 11.0126Z" fill="url(#paint0_linear_4_581)"/>
<defs>
<linearGradient id="paint0_linear_4_581" x1="2.96641" y1="5.17443" x2="6.96171" y2="15.8057" gradientUnits="userSpaceOnUse">
<stop stop-color="#DBB12C"/>
<stop offset="0.512473" stop-color="#E3C35E" stop-opacity="0.72"/>
<stop offset="1" stop-color="#F1E1AE"/>
</linearGradient>
</defs>
</svg>
